<svg xmlns="http://www.w3.org/2000/svg" viewBox="0 0 84.78 17.03"><defs><style>.cls-1{fill:#fff;}</style></defs><title>Ресурс 1</title><g id="Слой_2" data-name="Слой 2"><g id="artwork"><path class="cls-1" d="M27.09,4.7A4.2,4.2,0,0,0,22.82,9a4.27,4.27,0,0,0,8.54,0A4.19,4.19,0,0,0,27.09,4.7Zm0,6.84A2.47,2.47,0,0,1,24.69,9a2.41,2.41,0,1,1,4.8,0A2.46,2.46,0,0,1,27.09,11.54ZM17.78,4.7A4.2,4.2,0,0,0,13.51,9a4.27,4.27,0,0,0,8.54,0A4.2,4.2,0,0,0,17.78,4.7Zm0,6.84A2.46,2.46,0,0,1,15.38,9a2.41,2.41,0,1,1,4.8,0A2.46,2.46,0,0,1,17.78,11.54ZM6.7,6v1.8H11a3.83,3.83,0,0,1-1,2.28A4.46,4.46,0,0,1,6.7,11.41,4.74,4.74,0,0,1,2,6.61,4.74,4.74,0,0,1,6.7,1.8,4.64,4.64,0,0,1,10,3.09l1.27-1.27A6.3,6.3,0,0,0,6.7,0,6.69,6.69,0,0,0,0,6.61a6.69,6.69,0,0,0,6.7,6.6,6,6,0,0,0,4.61-1.85,6,6,0,0,0,1.56-4.22A6.31,6.31,0,0,0,12.78,6ZM52,7.41A4,4,0,0,0,48.37,4.7a4,4,0,0,0-4,4.26,4.16,4.16,0,0,0,4.22,4.25,4.21,4.21,0,0,0,3.54-1.88l-1.45-1a2.42,2.42,0,0,1-2.09,1.18,2.16,2.16,0,0,1-2.06-1.29L52.2,7.89Zm-5.8,1.42a2.33,2.33,0,0,1,2.22-2.48,1.65,1.65,0,0,1,1.58.9ZM41.59,13h1.87V.45H41.59Zm-3.06-7.3h-.07a3,3,0,0,0-2.24-1,4.26,4.26,0,0,0,0,8.51,2.88,2.88,0,0,0,2.24-1h.07v.62a2.18,2.18,0,0,1-2.28,2.49,2.35,2.35,0,0,1-2.14-1.51l-1.63.68A4.07,4.07,0,0,0,36.25,17c2.2,0,4-1.29,4-4.43V5H38.53Zm-2.15,5.89A2.44,2.44,0,0,1,34,9a2.46,2.46,0,0,1,2.37-2.59A2.39,2.39,0,0,1,38.65,9,2.37,2.37,0,0,1,36.38,11.54ZM60.76.45H56.29V13h1.87V8.22h2.6a4,4,0,0,0,4.11-3.89A4,4,0,0,0,60.76.45Zm.05,6H58.16V2.19h2.65A2.17,2.17,0,0,1,63,4.33,2.18,2.18,0,0,1,60.81,6.48Zm11.53-1.8A3.51,3.51,0,0,0,69,6.6l1.66.69a1.78,1.78,0,0,1,1.71-.92,1.8,1.8,0,0,1,2,1.61v.13a4,4,0,0,0-2-.49c-1.78,0-3.6,1-3.6,2.82a2.89,2.89,0,0,0,3.1,2.75A2.62,2.62,0,0,0,74.27,12h.07v1h1.8V8.14C76.14,5.92,74.48,4.68,72.34,4.68Zm-.22,6.85c-.61,0-1.46-.3-1.46-1.06,0-1,1.06-1.33,2-1.33a3.37,3.37,0,0,1,1.71.41A2.26,2.26,0,0,1,72.12,11.53ZM82.7,5l-2.14,5.42H80.5L78.28,5h-2l3.33,7.58-1.9,4.21h2L84.78,5ZM65.89,13h1.87V.45H65.89Z"/></g></g></svg>