<svg xmlns="http://www.w3.org/2000/svg" xmlns:xlink="http://www.w3.org/1999/xlink" viewBox="0 0 75.06 15.62"><defs><style>.cls-1{fill:none;}.cls-2{fill:#fff;}.cls-3{clip-path:url(#clip-path);}</style><clipPath id="clip-path" transform="translate(0 0)"><rect class="cls-1" width="75.06" height="15.62"/></clipPath></defs><g id="Слой_2" data-name="Слой 2"><g id="Слой_1-2" data-name="Слой 1"><path class="cls-2" d="M5.48,2.27h0L7.38,7.72H3.63ZM4.48.21,0,12.62H2L3.14,9.27H7.88L9,12.62h2L6.57.21Z" transform="translate(0 0)"/><g class="cls-3"><path class="cls-2" d="M20.73,8.1c0,2.81-1.5,4.62-3.78,4.62a3.06,3.06,0,0,1-2.84-1.58h0v4.48H12.2v-12H14V5.08h0a3.21,3.21,0,0,1,2.88-1.6c2.3,0,3.81,1.81,3.81,4.62m-1.91,0c0-1.83-.94-3-2.39-3s-2.38,1.23-2.38,3,1,3,2.38,3,2.39-1.19,2.39-3" transform="translate(0 0)"/><path class="cls-2" d="M30.7,8.1c0,2.81-1.51,4.62-3.78,4.62a3.08,3.08,0,0,1-2.85-1.58h0v4.48H22.17v-12H24V5.08h0a3.22,3.22,0,0,1,2.89-1.6c2.29,0,3.81,1.81,3.81,4.62m-1.91,0c0-1.83-.95-3-2.4-3S24,6.29,24,8.1s.95,3,2.37,3,2.4-1.19,2.4-3" transform="translate(0 0)"/><path class="cls-2" d="M37.28,9.16c.14,1.24,1.34,2,3,2S43,10.4,43,9.29s-.68-1.55-2.29-1.94L39.05,7c-2.28-.55-3.34-1.62-3.34-3.35C35.71,1.47,37.58,0,40.23,0s4.42,1.47,4.48,3.61H42.83c-.11-1.24-1.13-2-2.63-2s-2.52.75-2.52,1.85c0,.88.65,1.4,2.25,1.79l1.37.34c2.55.6,3.61,1.63,3.61,3.44,0,2.33-1.85,3.78-4.8,3.78-2.75,0-4.61-1.42-4.73-3.67Z" transform="translate(0 0)"/><path class="cls-2" d="M48.92,1.43V3.57h1.72V5H48.92v5c0,.78.34,1.14,1.1,1.14.19,0,.49,0,.61,0v1.46a5.13,5.13,0,0,1-1,.09c-1.83,0-2.55-.69-2.55-2.45V5H45.74V3.57h1.31V1.43Z" transform="translate(0 0)"/><path class="cls-2" d="M51.64,8.1c0-2.85,1.68-4.64,4.29-4.64s4.3,1.79,4.3,4.64-1.66,4.64-4.3,4.64S51.64,11,51.64,8.1m6.69,0c0-2-.89-3.11-2.4-3.11s-2.4,1.16-2.4,3.11.9,3.1,2.4,3.1,2.4-1.14,2.4-3.1" transform="translate(0 0)"/><path class="cls-2" d="M61.76,3.57h1.77V5.11h0a2.16,2.16,0,0,1,2.18-1.63,2.58,2.58,0,0,1,.64.07V5.28a2.69,2.69,0,0,0-.84-.11,1.87,1.87,0,0,0-1.93,2.09v5.37H61.76Z" transform="translate(0 0)"/><path class="cls-2" d="M75,10c-.25,1.64-1.85,2.77-3.9,2.77-2.64,0-4.27-1.77-4.27-4.6S68.43,3.46,71,3.46s4.08,1.72,4.08,4.47v.63H68.67v.11a2.36,2.36,0,0,0,2.43,2.57A2.05,2.05,0,0,0,73.19,10ZM68.67,7.26H73.2A2.17,2.17,0,0,0,71,5a2.3,2.3,0,0,0-2.31,2.29" transform="translate(0 0)"/></g></g></g></svg>