<svg xmlns="http://www.w3.org/2000/svg" xmlns:xlink="http://www.w3.org/1999/xlink" viewBox="0 0 17.72 21.78"><defs><style>.cls-1{fill:none;}.cls-2{clip-path:url(#clip-path);}.cls-3{fill:#fff;}</style><clipPath id="clip-path" transform="translate(0 0)"><rect class="cls-1" width="17.72" height="21.78"/></clipPath></defs><g id="Слой_2" data-name="Слой 2"><g id="Слой_1-2" data-name="Слой 1"><g class="cls-2"><path class="cls-3" d="M14.8,11.58a4.94,4.94,0,0,1,2.35-4.15,5.07,5.07,0,0,0-4-2.16c-1.68-.18-3.3,1-4.16,1s-2.19-1-3.61-1A5.31,5.31,0,0,0,.92,8.05C-1,11.39.43,16.31,2.28,19c.93,1.33,2,2.81,3.43,2.75s1.9-.88,3.58-.88,2.14.88,3.59.85,2.42-1.33,3.32-2.67A11.09,11.09,0,0,0,17.72,16a4.77,4.77,0,0,1-2.92-4.4" transform="translate(0 0)"/><path class="cls-3" d="M12.07,3.49A4.89,4.89,0,0,0,13.18,0,5,5,0,0,0,10,1.66,4.61,4.61,0,0,0,8.83,5a4.11,4.11,0,0,0,3.24-1.53" transform="translate(0 0)"/></g></g></g></svg>